<?xml version="1.0" encoding="utf-8"?>
<!-- Generator: Adobe Illustrator 27.5.0, SVG Export Plug-In . SVG Version: 6.00 Build 0)  -->
<svg version="1.1" id="Layer_1" xmlns="http://www.w3.org/2000/svg" xmlns:xlink="http://www.w3.org/1999/xlink" x="0px" y="0px"
	 viewBox="0 0 100 100" style="enable-background:new 0 0 100 100;" xml:space="preserve">
<style type="text/css">
	.st0{fill:#1C150E;}
</style>
<path class="st0" d="M63.9,15.6H36.1c-11.3,0-20.5,9.2-20.5,20.5v27.8c0,11.3,9.2,20.5,20.5,20.5h27.8c11.3,0,20.5-9.2,20.5-20.5
	V36.1C84.4,24.8,75.2,15.6,63.9,15.6z M77.5,63.9c0,7.5-6.1,13.6-13.6,13.6H36.1c-7.5,0-13.6-6.1-13.6-13.6c0,0,0,0,0,0V36.1
	c0-7.5,6.1-13.6,13.6-13.6c0,0,0,0,0,0h27.8c7.5,0,13.6,6.1,13.6,13.6L77.5,63.9z"/>
<path class="st0" d="M47.9,32.2c-9.8,0-17.8,8-17.8,17.8s8,17.8,17.8,17.8s17.8-8,17.8-17.8S57.7,32.2,47.9,32.2z M47.9,60.9
	C41.9,60.9,37,56,37,50c0-6,4.9-10.9,10.9-10.9S58.7,44,58.7,50C58.7,56,53.9,60.9,47.9,60.9z M65.7,28.1c2.4,0,4.3,1.9,4.3,4.3
	c0,2.4-1.9,4.3-4.3,4.3c-2.3,0-4.3-1.9-4.3-4.3C61.4,30,63,28.1,65.7,28.1z"/>
</svg>