<?xml version="1.0" encoding="utf-8"?>
<!-- Generator: Adobe Illustrator 27.5.0, SVG Export Plug-In . SVG Version: 6.00 Build 0)  -->
<svg version="1.1" id="Layer_1" xmlns="http://www.w3.org/2000/svg" xmlns:xlink="http://www.w3.org/1999/xlink" x="0px" y="0px"
	 viewBox="0 0 800 800" style="enable-background:new 0 0 800 800;" xml:space="preserve">
<style type="text/css">
	.st0{fill:#1C150E;}
</style>
<g id="_x37_935ec95c421cee6d86eb22ecd12951c">
	<path class="st0" d="M344.8,528.9c-21,109.9-46.6,215.3-122.4,270.4c-23.4-166.1,34.4-290.9,61.2-423.4c-45.8-77,5.5-232,102-193.8
		c118.8,47-102.8,286.4,45.9,316.3C586.8,529.5,650.2,228.8,553.9,131c-139.2-141.2-405.1-3.2-372.4,199c8,49.4,59,64.4,20.4,132.6
		c-89.1-19.8-115.6-90-112.2-183.6C95.2,125.6,227.4,18.3,360.1,3.5C527.8-15.3,685.2,65,706.9,222.8c24.5,178.1-75.7,371-255,357.1
		C403.3,576.1,382.8,552,344.8,528.9z"/>
</g>
</svg>
