<?xml version="1.0" encoding="utf-8"?>
<!-- Generator: Adobe Illustrator 27.5.0, SVG Export Plug-In . SVG Version: 6.00 Build 0)  -->
<svg version="1.1" id="Layer_1" xmlns="http://www.w3.org/2000/svg" xmlns:xlink="http://www.w3.org/1999/xlink" x="0px" y="0px"
	 viewBox="0 0 800 800" style="enable-background:new 0 0 800 800;" xml:space="preserve">
<style type="text/css">
	.st0{clip-path:url(#SVGID_00000093869003679936035280000007437655762227488150_);fill:#443322;}
	.st1{fill:#443322;}
</style>
<g>
	<g>
		<defs>
			<path id="SVGID_1_" d="M400,31c3.5,0,5.8,6.4,5.8,6.4l110.1,234.5L775,311.5L587.5,503.7L631.8,775L400,646.8L168.3,775
				l44.3-271.3L25,311.5l259.1-39.6l110-234.3C394.1,37.6,396.5,31,400,31 M400,0.1c-9.7,0-18.5,5.6-22.6,14.4L267.2,249.2
				L21.3,286.8c-9.3,1.4-16.9,7.9-19.9,16.8c-3,8.9-0.7,18.7,5.8,25.4l178.7,183.2L143.6,771c-1.5,9.5,2.4,19,10.3,24.5
				c4.3,3,9.4,4.6,14.4,4.6c4.1,0,8.3-1,12.1-3.1L400,675.4l219.6,121.5c3.8,2.1,8,3.1,12.1,3.1c5,0,10.1-1.5,14.4-4.6
				c7.8-5.5,11.8-15,10.3-24.5l-42.2-258.8L792.9,329c6.5-6.7,8.8-16.5,5.8-25.4c-3-8.9-10.7-15.4-19.9-16.8l-245.9-37.6L422.6,14.5
				C418.5,5.7,409.7,0.1,400,0.1L400,0.1z"/>
		</defs>
		<clipPath id="SVGID_00000078011106294061345040000014595477146145251727_">
			<use xlink:href="#SVGID_1_"  style="overflow:visible;"/>
		</clipPath>
		
			<rect x="0" y="0" style="clip-path:url(#SVGID_00000078011106294061345040000014595477146145251727_);fill:#443322;" width="400" height="800"/>
	</g>
	<rect x="383.6" y="17.2" class="st1" width="16.4" height="643.1"/>
</g>
<polyline class="st1" points="16.4,308 276.6,265.8 386.4,38.4 394.7,677 161,797.8 200.2,521.7 "/>
<path class="st1" d="M399.9,30.9c3.5,0,5.8,6.4,5.8,6.4l110.1,234.5L775,311.4L587.5,503.6l44.3,271.3L399.9,646.7L168.2,774.9
	l44.3-271.3L24.9,311.4L284,271.8L394,37.5C394,37.5,396.4,30.9,399.9,30.9 M399.9,0c-9.7,0-18.5,5.6-22.6,14.4L267.1,249.1
	L21.2,286.7c-9.3,1.4-16.9,7.9-19.9,16.8s-0.7,18.7,5.8,25.4l178.7,183.2l-42.3,258.8c-1.5,9.5,2.4,19,10.3,24.5
	c4.3,3,9.4,4.6,14.4,4.6c4.1,0,8.3-1,12.1-3.1l219.6-121.6l219.6,121.5c3.8,2.1,8,3.1,12.1,3.1c5,0,10.1-1.5,14.4-4.6
	c7.8-5.5,11.8-15,10.3-24.5L614.1,512l178.7-183.1c6.5-6.7,8.8-16.5,5.8-25.4s-10.7-15.4-19.9-16.8l-245.9-37.6L422.5,14.4
	C418.4,5.6,409.6,0,399.9,0L399.9,0z"/>
</svg>
