<?xml version="1.0" encoding="UTF-8"?>
<svg id="uuid-2392e436-f834-48ba-b6df-231a5d3c8d4f" data-name="Layer 1" xmlns="http://www.w3.org/2000/svg" viewBox="0 0 800 800">
  <defs>
    <style>
      .uuid-bf6ead01-6ad8-4881-b6eb-032d35fb197b {
        fill: #1c150e;
      }
    </style>
  </defs>
  <path class="uuid-bf6ead01-6ad8-4881-b6eb-032d35fb197b" d="m158.31,506.83l1.94,5.48c-.25-.63-.96-2.55-1.94-5.48Zm76.88-124.31c3.41-29.47,15-45.98,36.83-62.89,31.24-22.91,70.26-9.95,70.26-9.95v-76.88c9.49-.25,18.98.33,28.36,1.75v98.94s-39.01-12.96-70.25,9.96c-21.82,16.91-33.43,33.42-36.83,62.89-.11,16,2.77,36.93,16.03,55.02-3.28-1.75-6.62-3.75-10.02-5.99-29.2-20.46-34.52-51.15-34.38-72.84h0ZM531.77,90.64c-21.49-24.57-29.62-49.38-32.55-66.8h27.03s-5.39,45.69,33.89,90.63l.54.6c-10.59-6.95-20.3-15.15-28.92-24.43Zm130.23,69.66v96.95s-34.5-1.41-60.03-8.19c-35.65-9.48-58.56-24.01-58.56-24.01,0,0-15.83-10.37-17.11-11.09v200.21c0,11.15-2.93,38.99-11.85,62.21-11.65,30.37-29.62,50.31-32.92,54.39,0,0-21.86,26.95-60.42,45.1-34.76,16.37-65.27,15.96-74.4,16.37,0,0-52.75,2.18-100.22-30.01-10.26-7.09-19.85-15.13-28.62-24l.24.18c47.48,32.19,100.22,30.01,100.22,30.01,9.13-.41,39.65,0,74.4-16.37,38.53-18.15,60.42-45.1,60.42-45.1,3.27-4.08,21.32-24.01,32.92-54.4,8.9-23.21,11.85-51.06,11.85-62.21v-200.18c1.28.73,17.09,11.1,17.09,11.1,0,0,22.92,14.55,58.57,24.01,25.54,6.78,60.03,8.19,60.03,8.19v-75.97c11.8,2.76,21.86,3.51,28.38,2.82h0Z"/>
  <path class="uuid-bf6ead01-6ad8-4881-b6eb-032d35fb197b" d="m633.63,157.48v75.95s-34.49-1.41-60.03-8.19c-35.65-9.48-58.57-24.01-58.57-24.01,0,0-15.82-10.37-17.09-11.1v200.23c0,11.15-2.93,39-11.85,62.21-11.65,30.39-29.62,50.32-32.92,54.4,0,0-21.87,26.95-60.42,45.1-34.75,16.37-65.26,15.96-74.4,16.37,0,0-52.74,2.18-100.22-30.01l-.24-.18c-5.01-5.06-9.73-10.41-14.13-16.02-15.15-19.27-24.44-42.07-26.77-48.57,0-.03,0-.06,0-.08-3.76-11.3-11.65-38.44-10.57-64.73,1.91-46.38,17.54-74.85,21.68-81.98,10.95-19.45,25.19-36.85,42.09-51.43,14.91-12.58,31.82-22.59,50.02-29.62,19.68-8.25,40.74-12.67,62.08-13.03v76.88s-39.02-12.91-70.25,9.95c-21.83,16.92-33.42,33.42-36.83,62.89-.14,21.69,5.18,52.39,34.36,72.86,3.4,2.25,6.74,4.25,10.02,5.99,5.1,6.91,11.3,12.94,18.36,17.83,28.5,18.82,52.39,20.14,82.93,7.91,20.36-8.17,35.69-26.6,42.8-47.01,4.47-12.75,4.41-25.58,4.41-38.84V23.84h71.08c2.94,17.43,11.06,42.23,32.55,66.8,8.62,9.28,18.33,17.48,28.92,24.43,3.13,3.38,19.12,20.07,39.65,30.32,10.62,5.3,21.81,9.36,33.35,12.1Z"/>
  <path class="uuid-bf6ead01-6ad8-4881-b6eb-032d35fb197b" d="m148.7,450.05v.06l1.75,4.99c-.2-.58-.85-2.35-1.75-5.05h0Z"/>
  <path class="uuid-bf6ead01-6ad8-4881-b6eb-032d35fb197b" d="m280.21,245.83c-18.2,7.03-35.1,17.04-50.02,29.62-16.9,14.61-31.14,32.05-42.08,51.53-4.13,7.11-19.77,35.6-21.68,81.98-1.08,26.29,6.81,53.43,10.57,64.73,0,.03,0,.06,0,.08,2.37,6.44,11.62,29.24,26.77,48.57,4.4,5.6,9.12,10.95,14.13,16.02-16.06-11.11-30.39-24.54-42.51-39.85-15.02-19.11-24.29-41.66-26.7-48.32,0-.05,0-.09,0-.14v-.08c-3.77-11.29-11.68-38.44-10.58-64.77,1.91-46.38,17.54-74.85,21.68-81.98,10.93-19.49,25.17-36.92,42.08-51.53,14.91-12.58,31.81-22.59,50.02-29.62,11.35-4.71,23.18-8.19,35.28-10.37,18.23-3.18,36.85-3.46,55.17-.82v21.92c-21.35.35-42.44,4.77-62.14,13.03Z"/>
  <path class="uuid-bf6ead01-6ad8-4881-b6eb-032d35fb197b" d="m499.22,23.84h-71.08v377.44c0,13.27,0,26.06-4.41,38.84-7.18,20.4-22.45,38.82-42.8,47-30.55,12.27-54.44,10.91-82.93-7.91-7.07-4.87-13.29-10.87-18.41-17.77,24.27,12.95,46,12.72,72.92,1.92,20.34-8.17,35.63-26.6,42.79-47.01,4.48-12.75,4.42-25.58,4.42-38.83V0h98.15s-1.1,9.38,1.35,23.84Zm134.41,112.64v21c-11.52-2.74-22.69-6.8-33.29-12.1-20.53-10.25-36.52-26.94-39.65-30.32,3.63,2.38,7.39,4.55,11.28,6.49,24.96,12.46,49.54,16.18,61.66,14.91h0Z"/>
  <path class="uuid-bf6ead01-6ad8-4881-b6eb-032d35fb197b" d="m502.86,747.54c-.79-2.58-1.19-5.27-1.18-7.97v-.19c0,2.76.4,5.51,1.18,8.16h0Zm58.75-8.16v.19c0,2.7-.4,5.39-1.18,7.97.78-2.65,1.17-5.4,1.18-8.16h0Z"/>
  <path class="uuid-bf6ead01-6ad8-4881-b6eb-032d35fb197b" d="m501.67,739.57c0,2.7.39,5.39,1.18,7.97.04.18.09.36.17.53,3.89,12.54,15.49,21.09,28.62,21.09v30.32c-14.76,0-25.33.52-41.46-8.99-18.29-10.85-28.6-30.69-28.6-51.3s11.54-42.54,31.1-52.8c14.22-7.44,24.98-7.49,39-7.49v30.3c-16.56,0-29.98,13.42-29.98,29.98l-.02.38Z"/>
  <path class="uuid-bf6ead01-6ad8-4881-b6eb-032d35fb197b" d="m561.85,739.57c0,2.7-.4,5.39-1.18,7.97,0,.18-.11.36-.17.53-3.89,12.54-15.49,21.09-28.62,21.09v30.32c14.75,0,25.33.52,41.4-8.99,18.35-10.85,28.68-30.69,28.68-51.3s-11.54-42.54-31.1-52.8c-14.22-7.44-24.98-7.49-38.99-7.49v30.3c16.55,0,29.97,13.43,29.97,29.98v.38Z"/>
  <path class="uuid-bf6ead01-6ad8-4881-b6eb-032d35fb197b" d="m67.69,651.41h111.01l-10.26,30.54h-29.1v116.89h-35.69v-116.89h-35.97v-30.54Zm294.21,0v30.54h35.97v116.89h35.74v-116.89h29.05l10.26-30.54h-111.01Zm-159.04,34.81c9.55,0,17.29-7.76,17.28-17.31,0-9.55-7.76-17.29-17.31-17.28-9.55,0-17.29,7.76-17.28,17.31h0c0,9.55,7.74,17.28,17.28,17.28h.02Zm-17.31,112.63h35.04v-100.4h-35.04v100.4Zm161.11-113.5h-40.99l-35.33,35.33v-69.14h-34.82l-.11,147.31h35.15v-38.38l10.93-9.96,34.12,48.3h37.58l-49.42-70.63,42.88-42.83Zm336.17,42.85l42.85-42.85h-40.98l-35.34,35.33v-69.14h-34.81l-.17,147.31h35.16v-38.38l11.04-9.96,34.12,48.3h37.59l-49.47-70.61Zm-90.11,10.98c0,33.29-27.35,60.29-61.09,60.29s-61.09-27-61.09-60.29,27.35-60.29,61.09-60.29,61.09,27.01,61.09,60.31v-.02Zm-31.12,0c0-16.55-13.42-29.97-29.97-29.97s-29.97,13.42-29.97,29.97,13.42,29.97,29.97,29.97h0c16.54,0,29.96-13.4,29.97-29.95v-.02Z"/>
</svg>